<svg width="24" height="24" viewBox="0 0 18 16" fill="red" xmlns="http://www.w3.org/2000/svg">
<mask id="path-1-inside-1_9_47" fill="white">
<path  clip-rule="evenodd" d="M1.28585 1.28587C-0.428626 3.00035 -0.428625 5.78007 1.28585 7.49455L8.90559 15.1143L8.95744 15.0624L9.09441 15.1994L16.7141 7.57966C18.4286 5.86518 18.4286 3.08546 16.7141 1.37098C14.9997 -0.343495 12.2199 -0.343495 10.5055 1.37098L9.04256 2.8339L7.49453 1.28587C5.78005 -0.428607 3.00033 -0.428607 1.28585 1.28587Z"/>
</mask>
<path d="M1.28585 7.49455L1.99296 6.78744L1.28585 7.49455ZM1.28585 1.28587L0.578746 0.578765L0.578746 0.578765L1.28585 1.28587ZM8.90559 15.1143L8.19849 15.8214L8.90559 16.5285L9.6127 15.8214L8.90559 15.1143ZM8.95744 15.0624L9.66455 14.3553L8.95744 13.6482L8.25034 14.3553L8.95744 15.0624ZM9.09441 15.1994L8.3873 15.9065L9.09441 16.6136L9.80151 15.9065L9.09441 15.1994ZM16.7141 7.57966L17.4213 8.28677L17.4213 8.28677L16.7141 7.57966ZM16.7141 1.37098L16.007 2.07809L16.007 2.07809L16.7141 1.37098ZM10.5055 1.37098L9.79836 0.663878L9.79836 0.663878L10.5055 1.37098ZM9.04256 2.8339L8.33545 3.541L9.04256 4.24811L9.74966 3.541L9.04256 2.8339ZM7.49453 1.28587L6.78742 1.99298L6.78742 1.99298L7.49453 1.28587ZM1.99296 6.78744C0.669005 5.46349 0.669005 3.31693 1.99296 1.99298L0.578746 0.578765C-1.52626 2.68377 -1.52626 6.09666 0.578747 8.20166L1.99296 6.78744ZM9.6127 14.4072L1.99296 6.78744L0.578747 8.20166L8.19849 15.8214L9.6127 14.4072ZM8.25034 14.3553L8.19849 14.4072L9.6127 15.8214L9.66455 15.7695L8.25034 14.3553ZM8.25034 15.7695L8.3873 15.9065L9.80151 14.4923L9.66455 14.3553L8.25034 15.7695ZM9.80151 15.9065L17.4213 8.28677L16.007 6.87256L8.3873 14.4923L9.80151 15.9065ZM17.4213 8.28677C19.5263 6.18177 19.5263 2.76888 17.4213 0.663878L16.007 2.07809C17.331 3.40205 17.331 5.5486 16.007 6.87256L17.4213 8.28677ZM17.4213 0.663878C15.3163 -1.44113 11.9034 -1.44113 9.79836 0.663878L11.2126 2.07809C12.5365 0.754136 14.6831 0.754137 16.007 2.07809L17.4213 0.663878ZM9.79836 0.663878L8.33545 2.12679L9.74966 3.541L11.2126 2.07809L9.79836 0.663878ZM6.78742 1.99298L8.33545 3.541L9.74966 2.12679L8.20164 0.578765L6.78742 1.99298ZM1.99296 1.99298C3.31691 0.669024 5.46347 0.669024 6.78742 1.99298L8.20164 0.578765C6.09663 -1.52624 2.68375 -1.52624 0.578746 0.578765L1.99296 1.99298Z" fill="red" mask="url(#path-1-inside-1_9_47)"/>
</svg>
